<?xml version="1.0" encoding="UTF-8" standalone="no"?>
<!-- Created with Inkscape (http://www.inkscape.org/) -->

<svg
   width="512"
   height="512"
   viewBox="0 0 512 512"
   version="1.1"
   id="svg1"
   inkscape:version="1.4.2 (f4327f4, 2025-05-13)"
   sodipodi:docname="stars.svg"
   inkscape:export-filename="stars.png"
   inkscape:export-xdpi="96"
   inkscape:export-ydpi="96"
   xmlns:inkscape="http://www.inkscape.org/namespaces/inkscape"
   xmlns:sodipodi="http://sodipodi.sourceforge.net/DTD/sodipodi-0.dtd"
   xmlns="http://www.w3.org/2000/svg"
   xmlns:svg="http://www.w3.org/2000/svg">
  <sodipodi:namedview
     id="namedview1"
     pagecolor="#ffffff"
     bordercolor="#000000"
     borderopacity="0.25"
     inkscape:showpageshadow="2"
     inkscape:pageopacity="0.0"
     inkscape:pagecheckerboard="0"
     inkscape:deskcolor="#d1d1d1"
     inkscape:document-units="px"
     inkscape:zoom="0.77636719"
     inkscape:cx="288.52327"
     inkscape:cy="317.5044"
     inkscape:window-width="1920"
     inkscape:window-height="1013"
     inkscape:window-x="-9"
     inkscape:window-y="-9"
     inkscape:window-maximized="1"
     inkscape:current-layer="svg1" />
  <defs
     id="defs1">
    <inkscape:path-effect
       effect="bspline"
       id="path-effect6"
       is_visible="true"
       lpeversion="1.3"
       weight="33.4333"
       steps="2"
       helper_size="0"
       apply_no_weight="true"
       apply_with_weight="true"
       only_selected="false"
       uniform="false" />
    <inkscape:path-effect
       effect="fillet_chamfer"
       id="path-effect5"
       is_visible="true"
       lpeversion="1"
       nodesatellites_param="F,0,0,1,0,0,0,1 @ F,0,1,1,0,62.151248,0,1 @ F,0,0,1,0,0,0,1 @ F,0,1,1,0,62.151248,0,1 @ F,0,0,1,0,0,0,1 @ F,0,1,1,0,62.151248,0,1 @ F,0,0,1,0,0,0,1 @ F,0,1,1,0,62.151248,0,1"
       radius="0"
       unit="px"
       method="auto"
       mode="F"
       chamfer_steps="1"
       flexible="false"
       use_knot_distance="true"
       apply_no_radius="true"
       apply_with_radius="true"
       only_selected="false"
       hide_knots="false" />
    <inkscape:path-effect
       effect="bspline"
       id="path-effect4"
       is_visible="true"
       lpeversion="1.3"
       weight="33.3333"
       steps="2"
       helper_size="0"
       apply_no_weight="true"
       apply_with_weight="true"
       only_selected="false"
       uniform="false" />
    <inkscape:path-effect
       effect="bspline"
       id="path-effect3"
       is_visible="true"
       lpeversion="1.3"
       weight="30"
       steps="2"
       helper_size="0"
       apply_no_weight="true"
       apply_with_weight="true"
       only_selected="false"
       uniform="true" />
    <inkscape:path-effect
       effect="bspline"
       id="path-effect2"
       is_visible="false"
       lpeversion="1.3"
       weight="33.333333"
       steps="2"
       helper_size="0"
       apply_no_weight="true"
       apply_with_weight="true"
       only_selected="false"
       uniform="false" />
    <inkscape:path-effect
       effect="bspline"
       id="path-effect6-5"
       is_visible="true"
       lpeversion="1.3"
       weight="33.4333"
       steps="2"
       helper_size="0"
       apply_no_weight="true"
       apply_with_weight="true"
       only_selected="false"
       uniform="false" />
    <inkscape:path-effect
       effect="bspline"
       id="path-effect6-5-1"
       is_visible="true"
       lpeversion="1.3"
       weight="33.4333"
       steps="2"
       helper_size="0"
       apply_no_weight="true"
       apply_with_weight="true"
       only_selected="false"
       uniform="false" />
  </defs>
  <path
     id="path3"
     style="fill:#ffffff;stroke-width:2.756"
     transform="translate(54.098113,173.88679)"
     d="M 157.78617,313.32039 C 154.34144,260.62688 150.8967,207.93331 122.82761,179.86422 94.758511,151.79512 42.064943,148.35039 -10.628571,144.90566 42.064943,141.46093 94.758511,138.01619 122.8276,109.9471 c 28.0691,-28.069098 31.51383,-80.762666 34.95856,-133.456179 3.44473,52.693513 6.88947,105.387087 34.95856,133.456179 28.06909,28.06909 80.76267,31.51382 133.45618,34.95855 -52.69351,3.44473 -105.38709,6.88947 -133.45618,34.95856 -28.06909,28.06909 -31.51382,80.76267 -34.95855,133.45618 z"
     inkscape:path-effect="#path-effect4"
     inkscape:original-d="m 157.78617,313.32039 c 0,0 -6.88947,-105.38708 -10.3342,-158.08054 -52.693459,-3.44473 -158.080541,-10.33419 -158.080541,-10.33419 0,0 105.387082,-6.88947 158.080541,-10.3342 3.44473,-52.693458 10.33419,-158.080539 10.33419,-158.080539 0,0 6.88947,105.387087 10.3342,158.080539 52.69345,3.44473 158.08054,10.33419 158.08054,10.33419 0,0 -105.38709,6.88947 -158.08054,10.3342 -3.44473,52.69345 -10.33419,158.08054 -10.33419,158.08054 z"
     sodipodi:nodetypes="ccccccccc" />
  <path
     id="path4"
     style="fill:#ffffff;stroke-width:2.756"
     d="m 335.17038,292.37595 -3.2267,-62.67503 a 68.89806,68.89806 45 0 0 -65.26455,-65.26455 l -62.67503,-3.2267 62.67503,-3.22669 a 68.898054,68.898054 135 0 0 65.26455,-65.264545 l 3.2267,-62.675039 3.22669,62.675038 a 68.898049,68.898049 45 0 0 65.26455,65.264546 l 62.67503,3.22669 -62.67503,3.2267 a 68.898055,68.898055 135 0 0 -65.26455,65.26455 z"
     inkscape:path-effect="#path-effect5"
     inkscape:original-d="m 335.17038,292.37595 -6.4222,-124.74408 -124.74408,-6.4222 124.74408,-6.42219 6.4222,-124.744084 6.42219,124.744084 124.74408,6.42219 -124.74408,6.4222 z"
     sodipodi:nodetypes="ccccccccc"
     transform="translate(25.761006,7.7283014)" />
  <path
     id="path5"
     style="fill:#ffffff;stroke-width:2.756"
     transform="matrix(1.2248123,0,0,1.2248123,4.8859564,36.651391)"
     d="m 84.703385,156.04106 c -0.770405,0 -1.533902,-21.66758 -12.850951,-32.98463 -11.317049,-11.31705 -32.984622,-12.08054 -32.984621,-12.85095 0,-0.77041 21.667573,-1.5339 32.984621,-12.85095 11.317049,-11.317047 12.080544,-32.984621 12.85095,-32.984621 0.770405,0 1.533901,21.66757 12.850953,32.984619 11.317053,11.317052 32.984623,12.080542 32.984623,12.850952 0,0.77041 -21.66758,1.5339 -32.984627,12.85095 -11.317047,11.31705 -12.080542,32.98463 -12.850948,32.98463 z"
     inkscape:path-effect="#path-effect6"
     inkscape:original-d="m 84.703386,177.90475 c -0.770406,-21.86369 -1.533902,-43.53127 -2.304309,-65.39496 -21.863692,-0.77041 -43.531265,-1.5339 -65.394957,-2.30431 21.863693,-0.77041 43.531266,-1.5339 65.394958,-2.30431 0.770405,-21.863687 1.5339,-43.531261 2.304305,-65.394952 0.770406,21.863691 1.533902,43.531261 2.304308,65.394952 21.863699,0.77041 43.531269,1.5339 65.394959,2.30431 -21.86369,0.77041 -43.53127,1.5339 -65.394959,2.30431 -0.770405,21.86369 -1.5339,43.53127 -2.304305,65.39496 z"
     sodipodi:nodetypes="ccccccccc" />
  <path
     id="path5-1"
     style="fill:#ffffff;stroke-width:2.756"
     transform="matrix(0.64232577,0,0,0.64232577,284.49556,340.90913)"
     d="m 84.703385,156.04106 c -0.770405,0 -1.533902,-21.66758 -12.850951,-32.98463 -11.317049,-11.31705 -32.984622,-12.08054 -32.984621,-12.85095 0,-0.77041 21.667573,-1.5339 32.984621,-12.85095 11.317049,-11.317047 12.080544,-32.984621 12.85095,-32.984621 0.770405,0 1.533901,21.66757 12.850953,32.984619 11.317053,11.317052 32.984623,12.080542 32.984623,12.850952 0,0.77041 -21.66758,1.5339 -32.984627,12.85095 -11.317047,11.31705 -12.080542,32.98463 -12.850948,32.98463 z"
     inkscape:path-effect="#path-effect6-5"
     inkscape:original-d="m 84.703386,177.90475 c -0.770406,-21.86369 -1.533902,-43.53127 -2.304309,-65.39496 -21.863692,-0.77041 -43.531265,-1.5339 -65.394957,-2.30431 21.863693,-0.77041 43.531266,-1.5339 65.394958,-2.30431 0.770405,-21.863687 1.5339,-43.531261 2.304305,-65.394952 0.770406,21.863691 1.533902,43.531261 2.304308,65.394952 21.863699,0.77041 43.531269,1.5339 65.394959,2.30431 -21.86369,0.77041 -43.53127,1.5339 -65.394959,2.30431 -0.770405,21.86369 -1.5339,43.53127 -2.304305,65.39496 z"
     sodipodi:nodetypes="ccccccccc" />
  <path
     id="path5-1-2"
     style="fill:#ffffff;stroke-width:2.756"
     transform="matrix(0.45852096,0,0,0.45852096,97.711257,347.11363)"
     d="m 84.703385,156.04106 c -0.770405,0 -1.533902,-21.66758 -12.850951,-32.98463 -11.317049,-11.31705 -32.984622,-12.08054 -32.984621,-12.85095 0,-0.77041 21.667573,-1.5339 32.984621,-12.85095 11.317049,-11.317047 12.080544,-32.984621 12.85095,-32.984621 0.770405,0 1.533901,21.66757 12.850953,32.984619 11.317053,11.317052 32.984623,12.080542 32.984623,12.850952 0,0.77041 -21.66758,1.5339 -32.984627,12.85095 -11.317047,11.31705 -12.080542,32.98463 -12.850948,32.98463 z"
     inkscape:path-effect="#path-effect6-5-1"
     inkscape:original-d="m 84.703386,177.90475 c -0.770406,-21.86369 -1.533902,-43.53127 -2.304309,-65.39496 -21.863692,-0.77041 -43.531265,-1.5339 -65.394957,-2.30431 21.863693,-0.77041 43.531266,-1.5339 65.394958,-2.30431 0.770405,-21.863687 1.5339,-43.531261 2.304305,-65.394952 0.770406,21.863691 1.533902,43.531261 2.304308,65.394952 21.863699,0.77041 43.531269,1.5339 65.394959,2.30431 -21.86369,0.77041 -43.53127,1.5339 -65.394959,2.30431 -0.770405,21.86369 -1.5339,43.53127 -2.304305,65.39496 z"
     sodipodi:nodetypes="ccccccccc" />
</svg>
